<?xml version="1.0" encoding="UTF-8" standalone="no"?>
<!-- Created with Inkscape (http://www.inkscape.org/) -->

<svg
   xmlns:osb="http://www.openswatchbook.org/uri/2009/osb"
   xmlns:dc="http://purl.org/dc/elements/1.1/"
   xmlns:cc="http://creativecommons.org/ns#"
   xmlns:rdf="http://www.w3.org/1999/02/22-rdf-syntax-ns#"
   xmlns:svg="http://www.w3.org/2000/svg"
   xmlns="http://www.w3.org/2000/svg"
   xmlns:xlink="http://www.w3.org/1999/xlink"
   xmlns:sodipodi="http://sodipodi.sourceforge.net/DTD/sodipodi-0.dtd"
   xmlns:inkscape="http://www.inkscape.org/namespaces/inkscape"
   version="1.0"
   width="96"
   height="96"
   id="svg2408"
   sodipodi:docname="await.svg"
   inkscape:version="0.92.5 (2060ec1f9f, 2020-04-08)">
  <sodipodi:namedview
     pagecolor="#ffffff"
     bordercolor="#666666"
     borderopacity="1"
     objecttolerance="10"
     gridtolerance="10"
     guidetolerance="10"
     inkscape:pageopacity="0"
     inkscape:pageshadow="2"
     inkscape:window-width="1366"
     inkscape:window-height="707"
     id="namedview51"
     showgrid="false"
     inkscape:zoom="2.4583333"
     inkscape:cx="-10.746461"
     inkscape:cy="73.639444"
     inkscape:window-x="0"
     inkscape:window-y="0"
     inkscape:window-maximized="1"
     inkscape:current-layer="svg2408"
     inkscape:snap-global="false" />
  <defs
     id="defs2410">
    <linearGradient
       id="linearGradient5059"
       osb:paint="solid">
      <stop
         style="stop-color:#ffffff;stop-opacity:1;"
         offset="0"
         id="stop5057" />
    </linearGradient>
    <linearGradient
       x1="45.447727"
       y1="92.539597"
       x2="45.447727"
       y2="7.0165396"
       id="ButtonShadow"
       gradientUnits="userSpaceOnUse"
       gradientTransform="scale(1.0058652,0.994169)">
      <stop
         id="stop3750"
         style="stop-color:#000000;stop-opacity:1"
         offset="0" />
      <stop
         id="stop3752"
         style="stop-color:#000000;stop-opacity:0.58823532"
         offset="1" />
    </linearGradient>
    <linearGradient
       id="linearGradient3737">
      <stop
         id="stop3739"
         style="stop-color:#ffffff;stop-opacity:1"
         offset="0" />
      <stop
         id="stop3741"
         style="stop-color:#ffffff;stop-opacity:0"
         offset="1" />
    </linearGradient>
    <filter
       color-interpolation-filters="sRGB"
       id="filter3174">
      <feGaussianBlur
         id="feGaussianBlur3176"
         stdDeviation="1.71" />
    </filter>
    <linearGradient
       x1="36.357143"
       y1="6"
       x2="36.357143"
       y2="63.893143"
       id="linearGradient3188"
       xlink:href="#linearGradient3737"
       gradientUnits="userSpaceOnUse" />
    <filter
       x="-0.192"
       y="-0.192"
       width="1.3839999"
       height="1.3839999"
       color-interpolation-filters="sRGB"
       id="filter3794">
      <feGaussianBlur
         id="feGaussianBlur3796"
         stdDeviation="5.28" />
    </filter>
    <linearGradient
       x1="48"
       y1="20.220806"
       x2="48"
       y2="138.66119"
       id="linearGradient3613"
       xlink:href="#linearGradient3737"
       gradientUnits="userSpaceOnUse" />
    <radialGradient
       cx="48"
       cy="90.171875"
       r="42"
       fx="48"
       fy="90.171875"
       id="radialGradient3619"
       xlink:href="#linearGradient3737"
       gradientUnits="userSpaceOnUse"
       gradientTransform="matrix(1.011598,0,0,0.87484237,-5.8448388,11.113824)" />
    <clipPath
       id="clipPath3613">
      <rect
         width="84"
         height="84"
         rx="6"
         ry="6"
         x="6"
         y="6"
         id="rect3615"
         style="fill:#ffffff;fill-opacity:1;fill-rule:nonzero;stroke:none" />
    </clipPath>
    <linearGradient
       x1="45.447727"
       y1="92.539597"
       x2="45.447727"
       y2="7.0165396"
       id="ButtonShadow-0"
       gradientUnits="userSpaceOnUse"
       gradientTransform="matrix(1.0058652,0,0,0.994169,100,0)">
      <stop
         id="stop3750-8"
         style="stop-color:#000000;stop-opacity:1"
         offset="0" />
      <stop
         id="stop3752-5"
         style="stop-color:#000000;stop-opacity:0.58823532"
         offset="1" />
    </linearGradient>
    <linearGradient
       x1="32.251034"
       y1="6.1317081"
       x2="32.251034"
       y2="90.238609"
       id="linearGradient3780"
       xlink:href="#ButtonShadow-0"
       gradientUnits="userSpaceOnUse"
       gradientTransform="matrix(1.0238095,0,0,1.0119048,-1.1428571,-98.071429)" />
    <linearGradient
       x1="32.251034"
       y1="6.1317081"
       x2="32.251034"
       y2="90.238609"
       id="linearGradient3772"
       xlink:href="#ButtonShadow-0"
       gradientUnits="userSpaceOnUse"
       gradientTransform="matrix(1.0238095,0,0,1.0119048,-1.1428571,-98.071429)" />
    <linearGradient
       x1="32.251034"
       y1="6.1317081"
       x2="32.251034"
       y2="90.238609"
       id="linearGradient3725"
       xlink:href="#ButtonShadow-0"
       gradientUnits="userSpaceOnUse"
       gradientTransform="matrix(1.0238095,0,0,1.0119048,-1.1428571,-98.071429)" />
    <linearGradient
       x1="32.251034"
       y1="6.1317081"
       x2="32.251034"
       y2="90.238609"
       id="linearGradient3721"
       xlink:href="#ButtonShadow-0"
       gradientUnits="userSpaceOnUse"
       gradientTransform="translate(0,-97)" />
    <linearGradient
       x1="32.251034"
       y1="6.1317081"
       x2="32.251034"
       y2="90.238609"
       id="linearGradient3026"
       xlink:href="#ButtonShadow-0"
       gradientUnits="userSpaceOnUse"
       gradientTransform="matrix(1.0238095,0,0,1.0119048,-1.1428571,-98.071429)" />
    <linearGradient
       id="linearGradient3700-8">
      <stop
         id="stop3702-1"
         style="stop-color:#2e4f84;stop-opacity:1"
         offset="0" />
      <stop
         id="stop3704-8"
         style="stop-color:#4c77c5;stop-opacity:1"
         offset="1" />
    </linearGradient>
    <linearGradient
       x1="48"
       y1="90"
       x2="48"
       y2="5.9877172"
       id="linearGradient2900"
       xlink:href="#linearGradient3700-8"
       gradientUnits="userSpaceOnUse" />
  </defs>
  <metadata
     id="metadata2413">
    <rdf:RDF>
      <cc:Work
         rdf:about="">
        <dc:format>image/svg+xml</dc:format>
        <dc:type
           rdf:resource="http://purl.org/dc/dcmitype/StillImage" />
        <dc:title />
      </cc:Work>
    </rdf:RDF>
  </metadata>
  <g
     id="layer2"
     style="display:none">
    <rect
       width="86"
       height="85"
       rx="6"
       ry="6"
       x="5"
       y="7"
       id="rect3745"
       style="opacity:0.9;fill:url(#ButtonShadow);fill-opacity:1;fill-rule:nonzero;stroke:none;filter:url(#filter3174)" />
  </g>
  <g
     id="layer3"
     transform="matrix(0.81057875,0,0,0.84962968,8.8717124,7.1999589)">
    <path
       d="m 12,-95.03125 c -5.5110903,0 -10.03125,4.52016 -10.03125,10.03125 v 71 c 0,5.5110902 4.5201598,10.03125 10.03125,10.03125 h 72 c 5.51109,0 10.03125,-4.5201597 10.03125,-10.03125 v -71 c 0,-5.51109 -4.52016,-10.03125 -10.03125,-10.03125 z"
       transform="scale(1,-1)"
       id="path3786"
       style="display:inline;opacity:0.07999998;fill:url(#linearGradient3026);fill-opacity:1;fill-rule:nonzero;stroke:none"
       inkscape:connector-curvature="0" />
    <path
       d="m 12,-94.03125 c -4.971633,0 -9.03125,4.059617 -9.03125,9.03125 v 71 c 0,4.9716329 4.0596171,9.03125 9.03125,9.03125 h 72 c 4.971633,0 9.03125,-4.059617 9.03125,-9.03125 v -71 c 0,-4.971633 -4.059617,-9.03125 -9.03125,-9.03125 z"
       transform="scale(1,-1)"
       id="path3778"
       style="display:inline;opacity:0.1;fill:url(#linearGradient3780);fill-opacity:1;fill-rule:nonzero;stroke:none"
       inkscape:connector-curvature="0" />
    <path
       d="m 12,-93 c -4.4091333,0 -8,3.590867 -8,8 v 71 c 0,4.4091333 3.5908667,8 8,8 h 72 c 4.409133,0 8,-3.5908667 8,-8 v -71 c 0,-4.409133 -3.590867,-8 -8,-8 z"
       transform="scale(1,-1)"
       id="path3770"
       style="display:inline;opacity:0.2;fill:url(#linearGradient3772);fill-opacity:1;fill-rule:nonzero;stroke:none"
       inkscape:connector-curvature="0" />
    <rect
       width="86"
       height="85"
       rx="7"
       ry="7"
       x="5"
       y="-92"
       transform="scale(1,-1)"
       id="rect3723"
       style="display:inline;opacity:0.3;fill:url(#linearGradient3725);fill-opacity:1;fill-rule:nonzero;stroke:none" />
    <rect
       width="84"
       height="84"
       rx="6"
       ry="6"
       x="6"
       y="-91"
       transform="scale(1,-1)"
       id="rect3716"
       style="display:inline;opacity:0.45;fill:url(#linearGradient3721);fill-opacity:1;fill-rule:nonzero;stroke:none" />
  </g>
  <g
     id="layer1"
     transform="matrix(1,0,0,1.0308182,6.9246061,-4.8190198)">
    <rect
       width="68.13559"
       height="69.762711"
       rx="4.866828"
       ry="4.9830508"
       x="6.7636042"
       y="17.387657"
       id="rect2419"
       style="fill:#aa0000;fill-opacity:1;fill-rule:nonzero;stroke:none;stroke-width:0.82076609" />
    <path
       d="M 11.244552,90 C 8.3390702,90 6,87.649302 6,84.729377 V 82.972503 23.238776 21.481902 c 0,-0.294032 0.036144,-0.571599 0.081946,-0.850986 0.042568,-0.259663 0.084822,-0.524353 0.1638923,-0.768633 0.00864,-0.02669 0.018261,-0.05587 0.027315,-0.08235 0.086417,-0.252789 0.2053069,-0.480902 0.3277845,-0.71373 0.1263865,-0.240259 0.2758775,-0.470505 0.437046,-0.68628 0.1611685,-0.215774 0.326715,-0.415915 0.5189921,-0.603925 0.3845541,-0.37602 0.8241901,-0.71551 1.311138,-0.960791 0.243474,-0.12264 0.5012683,-0.216927 0.7648305,-0.301962 -0.2239439,0.08804 -0.4254301,0.20755 -0.6282536,0.329413 -0.00648,0.0039 -0.020861,-0.004 -0.027315,0 -0.027912,0.01695 -0.05445,0.03734 -0.081946,0.0549 -0.1052363,0.06738 -0.201935,0.143636 -0.3004691,0.219609 -0.092805,0.07098 -0.1864272,0.141527 -0.2731538,0.219609 -0.1555271,0.141809 -0.3037117,0.303402 -0.437046,0.46667 -0.094034,0.114421 -0.1908964,0.233036 -0.2731538,0.356865 -0.02193,0.03372 -0.033605,0.07543 -0.054631,0.109805 -0.056609,0.09051 -0.1138308,0.179655 -0.1638923,0.274511 -0.088291,0.171037 -0.1797787,0.365168 -0.2458383,0.549024 -0.00696,0.01916 -0.020619,0.03562 -0.027315,0.0549 -0.027818,0.08077 -0.031296,0.164119 -0.054631,0.24706 -0.026513,0.09366 -0.061527,0.17835 -0.081946,0.274512 -0.063703,0.299997 -0.1092615,0.613329 -0.1092615,0.93334 v 1.756874 59.733727 1.756874 c 0,2.443679 1.9388687,4.392186 4.37046,4.392186 h 1.748184 59.438257 1.748184 c 2.431591,0 4.37046,-1.948507 4.37046,-4.392186 V 82.094066 22.360339 20.603465 c 0,-0.320011 -0.04556,-0.633343 -0.109262,-0.93334 -0.03859,-0.181742 -0.07725,-0.349318 -0.136577,-0.521572 -0.0067,-0.01928 -0.02037,-0.03574 -0.02732,-0.0549 -0.05484,-0.152619 -0.120959,-0.322781 -0.191208,-0.46667 -0.03634,-0.07274 -0.06909,-0.149294 -0.109261,-0.219609 -0.04773,-0.08539 -0.110812,-0.165454 -0.163892,-0.247061 -0.08226,-0.123829 -0.17912,-0.242444 -0.273154,-0.356865 -0.125147,-0.153243 -0.264973,-0.304816 -0.409731,-0.439218 -0.0098,-0.009 -0.01746,-0.01858 -0.02732,-0.02745 -0.120962,-0.110293 -0.249196,-0.205937 -0.382415,-0.301962 -0.08966,-0.06426 -0.178593,-0.134721 -0.273154,-0.192159 -0.0065,-0.004 -0.02084,0.0039 -0.02732,0 -0.202824,-0.121863 -0.40431,-0.241375 -0.628254,-0.329413 0.263562,0.08503 0.521356,0.179322 0.76483,0.301962 0.486948,0.245281 0.926584,0.584771 1.311138,0.960791 0.192277,0.18801 0.357824,0.388151 0.518993,0.603925 0.161168,0.215775 0.310659,0.446021 0.437046,0.68628 0.122477,0.232828 0.241367,0.460941 0.327784,0.71373 0.0091,0.02704 0.01864,0.05511 0.02732,0.08235 0.07907,0.24428 0.121324,0.50897 0.163893,0.768633 0.0458,0.279387 0.08195,0.556954 0.08195,0.850986 v 1.756874 59.733727 1.756874 C 79.423729,87.649302 77.084659,90 74.179177,90 Z"
       inkscape:connector-curvature="0"
       id="path3615"
       style="opacity:0.1;fill:url(#radialGradient3619);fill-opacity:1;fill-rule:nonzero;stroke:none;stroke-width:0.87626189" />
  </g>
  <g
     id="layer5"
     style="display:none">
    <rect
       width="66"
       height="66"
       rx="12"
       ry="12"
       x="15"
       y="15"
       clip-path="url(#clipPath3613)"
       id="rect3171"
       style="opacity:0.1;fill:url(#linearGradient3613);fill-opacity:1;fill-rule:nonzero;stroke:#ffffff;stroke-width:0.5;stroke-linecap:round;stroke-linejoin:miter;stroke-miterlimit:4;stroke-opacity:1;stroke-dasharray:none;stroke-dashoffset:0;filter:url(#filter3794)" />
  </g>
  <rect
     style="fill:#aa0000;stroke-width:1.00756788"
     id="rect4085"
     width="16.017687"
     height="9.1504412"
     x="52.637085"
     y="37.297955"
     rx="4.8668299"
     ry="3.095171"
     transform="matrix(0.81915204,0.57357644,-0.4238045,0.90575369,0,0)" />
  <text
     xml:space="preserve"
     style="font-style:normal;font-variant:normal;font-weight:normal;font-stretch:normal;font-size:40px;line-height:1.25;font-family:'3270Medium Nerd Font';-inkscape-font-specification:'3270Medium Nerd Font';letter-spacing:0px;word-spacing:0px;fill:#000000;fill-opacity:1;stroke:none"
     x="42.711864"
     y="65.898308"
     id="text4190"><tspan
       sodipodi:role="line"
       id="tspan4188"
       x="42.711864"
       y="102.89831"
       style="font-style:normal;font-variant:normal;font-weight:normal;font-stretch:normal;font-family:aakar;-inkscape-font-specification:aakar;" /></text>
  <text
     xml:space="preserve"
     style="font-style:normal;font-variant:normal;font-weight:normal;font-stretch:normal;font-size:40px;line-height:1.25;font-family:'Liberation Serif';-inkscape-font-specification:'Liberation Serif';letter-spacing:0px;word-spacing:0px;fill:#000000;fill-opacity:1;stroke:none"
     x="34.681599"
     y="73.331322"
     id="text4202"><tspan
       sodipodi:role="line"
       id="tspan4200"
       x="34.681599"
       y="108.83616" /></text>
  <g
     transform="matrix(4.1561058,0,0,3.4555777,16.134882,22.100863)"
     style="fill:#ffffff"
     id="g6">
    <path
       inkscape:connector-curvature="0"
       d="m 7.7841928,0.74968446 c -1.645,0 -3,1.35500004 -3,3.00000004 v 1 h -1 v 1.01 h 8.0000002 v -1.01 h -1 v -1 c 0,-1.645 -1.3550002,-3.00000004 -3.0000002,-3.00000004 z m 0,2.00000004 c 0.564,0 1,0.436 1,1 v 1 h -2 v -1 c 0,-0.564 0.436,-1 1,-1 z m -4,8.0000005 v 1.01 h 3 v 0.99 H 1.7841926 v 2 H 13.784193 v -2 H 8.7841928 v -0.99 h 3.0000002 v -1.01 z"
       font-weight="400"
       overflow="visible"
       style="color:#bebebe;font-weight:400;font-family:sans-serif;text-indent:0;text-decoration:none;text-decoration-line:none;text-decoration-style:solid;text-decoration-color:#000000;text-transform:none;overflow:visible;opacity:1;isolation:auto;mix-blend-mode:normal;fill:#ffffff;fill-opacity:1"
       id="path2" />
    <path
       inkscape:connector-curvature="0"
       d="M 5,8.5 A 1.5,1.5 0 0 1 3.5,10 1.5,1.5 0 0 1 2,8.5 1.5,1.5 0 0 1 3.5,7 1.5,1.5 0 0 1 5,8.5 Z m 4,0 A 1.5,1.5 0 0 1 7.5,10 1.5,1.5 0 0 1 6,8.5 1.5,1.5 0 0 1 7.5,7 1.5,1.5 0 0 1 9,8.5 Z m 4,0 A 1.5,1.5 0 0 1 11.5,10 1.5,1.5 0 0 1 10,8.5 1.5,1.5 0 0 1 11.5,7 1.5,1.5 0 0 1 13,8.5 Z"
       id="path4"
       style="fill:#ffffff" />
  </g>
</svg>
